<svg xmlns="http://www.w3.org/2000/svg" version="1.1" width="1254" height="1254" viewBox="0 0 1254 1254">
<rect x="55" y="28" width="1146" height="1184" rx="250" ry="250" fill="#040508"/>
<path d="M0 0 C9.08782252 7.13065592 16.87742279 16.05371579 21 27 C21.09770626 28.41657406 21.19399756 29.83324624 21.2890625 31.25 C22.02590981 34.66223423 22.77632282 35.81584007 25.50952148 38.06616211 C28.96372162 40.17448136 32.47090363 42.07816407 36.0625 43.9375 C37.35540882 44.63588469 38.64658355 45.33748888 39.93603516 46.04223633 C42.47588742 47.42715672 45.02224918 48.79849617 47.57568359 50.15820312 C51.74053282 52.3983017 55.81809575 54.75904993 59.875 57.1875 C61.19120244 57.96649031 62.50761082 58.74513274 63.82421875 59.5234375 C64.48856934 59.91756836 65.15291992 60.31169922 65.83740234 60.71777344 C68.27148556 62.1609666 70.70785749 63.60024761 73.14453125 65.0390625 C76.8781963 67.24379154 80.611285 69.44948993 84.34375 71.65625 C88.00991672 73.82376421 91.6765451 75.99049276 95.34375 78.15625 C97.12501045 79.20831563 98.90626038 80.26039909 100.6875 81.3125 C101.58315674 81.84149902 102.47881348 82.37049805 103.40161133 82.91552734 C108.45178297 85.89949745 113.4989478 88.88845594 118.54296875 91.8828125 C130.42856768 98.93758983 142.33118678 105.96054286 154.27709961 112.9128418 C163.71700365 118.40930585 173.11884239 123.96921055 182.51904297 129.53320312 C186.85237544 132.09516549 191.19299139 134.64471207 195.53344727 137.19458008 C199.45061464 139.4969737 203.36383134 141.80588045 207.2734375 144.12109375 C220.44453256 151.9203165 233.64347295 159.66852547 246.94140625 167.25 C247.85599609 167.77158691 247.85599609 167.77158691 248.7890625 168.30371094 C250.49414447 169.27361714 252.20209336 170.23847805 253.91015625 171.203125 C256.83687719 172.90513718 259.65926255 174.72214112 262.5 176.5625 C265.39067387 178.28939608 266.59201379 178.99150029 270 179.0625 C270.99 178.711875 271.98 178.36125 273 178 C274.68586475 177.49451381 276.37352685 176.99500097 278.0625 176.5 C278.87847656 176.2421875 279.69445312 175.984375 280.53515625 175.71875 C294.49857026 171.64700962 308.96509387 174.18225486 321.8125 180.6875 C336.0179408 189.10944781 345.50551653 202.02770277 350.109375 217.80078125 C353.62817615 232.65910703 350.58822136 247.13239852 343.25 260.3125 C334.17838786 274.24390436 321.41871471 284.41753819 305 288 C296.1824935 289.07845313 286.45447457 288.90622563 278 286 C277.195625 285.731875 276.39125 285.46375 275.5625 285.1875 C261.23525428 279.94582474 251.13439408 270.62478603 244.61279297 256.93823242 C238.62826917 243.8296407 238.62826917 243.8296407 239.453125 237.55078125 C239.85612387 233.28863013 240.11294306 229.78253673 238 226 C232.16998256 220.63843988 224.57300797 217.35896142 217.56005859 213.82861328 C212.17907277 211.09930942 206.98082829 208.04387391 201.76272583 205.01895142 C199.40082576 203.6536447 197.03044767 202.3034451 194.65989685 200.95323181 C184.70488167 195.28205582 174.81379076 189.50199736 164.92675781 183.71337891 C159.99491924 180.82618812 155.0603688 177.94365119 150.125 175.0625 C148.64616333 174.19878784 148.64616333 174.19878784 147.13745117 173.31762695 C140.88352124 169.66920512 134.61371747 166.04946932 128.33544922 162.44311523 C117.61950229 156.28580215 106.98214263 150.01628543 96.40136719 143.62963867 C87.83374195 138.47035634 79.18527431 133.46071766 70.51293945 128.47998047 C63.71162624 124.57150812 56.93563506 120.62456534 50.1875 116.625 C49.32560059 116.11461182 48.46370117 115.60422363 47.57568359 115.07836914 C45.74768441 113.99583062 43.91972367 112.91322716 42.09179688 111.83056641 C36.53066625 108.53797659 30.96824473 105.24767397 25.39907837 101.96868896 C24.10239478 101.20440074 22.80646154 100.43883789 21.51132202 99.67193604 C19.69566184 98.59701333 17.87744102 97.52654991 16.05859375 96.45703125 C15.00986084 95.83803955 13.96112793 95.21904785 12.88061523 94.58129883 C10.27491614 93.15091379 7.83544759 91.89256717 5 91 C2.66302833 92.12229707 2.66302833 92.12229707 0.5 94.0625 C-5.24639042 98.41946467 -11.18982193 100.75044441 -18 103 C-18.72058594 103.2475 -19.44117188 103.495 -20.18359375 103.75 C-29.93442675 106.6691683 -39.5654012 105.15949355 -49 102 C-49.69738281 101.7834375 -50.39476562 101.566875 -51.11328125 101.34375 C-56.07214637 99.67423229 -60.30604885 97.11937637 -64.703125 94.3046875 C-66.96441721 93.02021199 -68.43611508 92.33514453 -71 92 C-73.25974432 92.81280886 -73.25974432 92.81280886 -75.54296875 94.21875 C-76.43838379 94.73083008 -77.33379883 95.24291016 -78.25634766 95.77050781 C-79.22362793 96.34124023 -80.1909082 96.91197266 -81.1875 97.5 C-82.20634277 98.0887793 -83.22518555 98.67755859 -84.27490234 99.28417969 C-92.64494485 104.14337981 -100.94477716 109.12313278 -109.23046875 114.12451172 C-117.34562787 119.02283975 -125.50514294 123.84020828 -133.6875 128.625 C-134.9277393 129.35049614 -136.16797369 130.07600066 -137.40820312 130.80151367 C-139.2281271 131.86609867 -141.04805641 132.93067444 -142.86807251 133.99510193 C-148.29532506 137.1702647 -153.71254716 140.36218867 -159.125 143.5625 C-159.99785645 144.0786084 -160.87071289 144.5947168 -161.77001953 145.12646484 C-166.62879545 148.0012332 -171.48483741 150.8805894 -176.33984375 153.76171875 C-197.80873033 166.50006127 -219.34341536 179.12351484 -240.90966797 191.69628906 C-256.04384086 200.52142087 -271.1715517 209.35843702 -286.24609375 218.28515625 C-286.83282364 218.63259888 -287.41955353 218.9800415 -288.02406311 219.3380127 C-290.89651417 221.03999203 -293.76680336 222.7454574 -296.63500977 224.45458984 C-301.4698171 227.33331907 -306.30837536 230.19316197 -311.21875 232.94140625 C-321.18876112 238.54213943 -328.82064193 243.25648009 -332.40167022 254.57037985 C-333.3583745 258.45524078 -333.3927076 262.18296104 -333.33816528 266.16618347 C-333.33846202 267.04352011 -333.33875875 267.92085674 -333.33906448 268.82477933 C-333.33665826 271.74042395 -333.31302179 274.65549985 -333.28955078 277.57104492 C-333.28382849 279.67098153 -333.27955837 281.77092251 -333.27662659 283.87086487 C-333.26804252 288.38067828 -333.25081576 292.8903466 -333.22729874 297.40010643 C-333.19177884 304.53095074 -333.18549604 311.66163472 -333.18502808 318.79255676 C-333.18007204 339.06554941 -333.1507173 359.3382866 -333.05859375 379.61108398 C-333.0079169 390.81697763 -332.98919 402.02244872 -333.0061816 413.22844964 C-333.0151913 420.31829821 -332.98489249 427.40654982 -332.92592168 434.49614179 C-332.8987828 438.9030175 -332.90923735 443.30920233 -332.93050957 447.71608543 C-332.93286413 449.75995096 -332.91977692 451.80390111 -332.89015007 453.84755325 C-332.67834377 469.31069393 -332.67834377 469.31069393 -335.95383644 473.49734211 C-338.27794228 475.08031343 -340.36127515 476.05993333 -343 477 C-344.16388158 477.67389782 -345.31428102 478.3719508 -346.44580078 479.09887695 C-347.51813965 479.72238037 -348.59047852 480.34588379 -349.6953125 480.98828125 C-350.28647354 481.33328674 -350.87763458 481.67829224 -351.48670959 482.03375244 C-353.36467296 483.12920922 -355.24476243 484.22095218 -357.125 485.3125 C-359.70781859 486.81635956 -362.28959744 488.32199698 -364.87109375 489.828125 C-365.49520645 490.19196793 -366.11931915 490.55581085 -366.76234436 490.93067932 C-372.7372234 494.41915165 -378.65197419 498.00104115 -384.54296875 501.62890625 C-387 503 -387 503 -389 503 C-389.09172198 470.03953447 -389.16212298 437.07910226 -389.20426132 404.11853806 C-389.20926365 400.2198943 -389.21444098 396.3212508 -389.21972656 392.42260742 C-389.2207758 391.64651624 -389.22182505 390.87042507 -389.22290608 390.07081597 C-389.2402719 377.53396674 -389.2717883 364.9971915 -389.30861118 352.46038605 C-389.3461274 339.57929722 -389.36825833 326.69824692 -389.37635398 313.81710571 C-389.38181971 305.88020254 -389.39902988 297.94350858 -389.43166587 290.00666987 C-389.45547556 283.90227681 -389.45779309 277.79804048 -389.45243073 271.69360733 C-389.45352453 269.20288372 -389.46139179 266.71215165 -389.4768219 264.2214756 C-389.59910927 243.45054787 -388.82398824 224.09953269 -373.6875 208.1875 C-365.97436941 200.5955974 -356.30319653 195.26812256 -346.99694824 189.89373779 C-343.77136058 188.03063752 -340.55444667 186.1526359 -337.3359375 184.27734375 C-336.38044006 183.72146576 -336.38044006 183.72146576 -335.40563965 183.15435791 C-330.16237485 180.1021028 -324.94730216 177.00492965 -319.75 173.875 C-318.9669751 173.40384766 -318.1839502 172.93269531 -317.37719727 172.44726562 C-314.91745724 170.96595942 -312.45865988 169.48309826 -310 168 C-296.33946048 159.76374292 -282.64174989 151.59974637 -268.86419678 143.56118774 C-259.57728004 138.13934349 -250.36485866 132.60506079 -241.1875 127 C-233.57463152 122.35125967 -225.95130534 117.75337855 -218.13891602 113.44580078 C-211.72137902 109.89046685 -205.42822687 106.12809747 -199.125 102.375 C-190.12140898 97.015447 -181.08687193 91.71777933 -172 86.5 C-162.06569008 80.79240191 -152.19087905 74.99142499 -142.34277344 69.13647461 C-135.09086556 64.82652676 -127.82506904 60.54187003 -120.54223633 56.28442383 C-118.03836089 54.81992774 -115.53984607 53.34689187 -113.0456543 51.8659668 C-108.10039258 48.93577193 -103.17883349 46.02634371 -98.015625 43.4921875 C-90.69725638 39.86874452 -90.69725638 39.86874452 -86.25 33.29296875 C-85.34820322 30.53980543 -84.66427161 27.76348325 -84.015625 24.94140625 C-81.49863356 14.15097071 -72.78988104 4.66339653 -63.6640625 -1.23046875 C-43.68380858 -13.45874598 -19.46573269 -14.18849672 0 0 Z " fill="#18A9FB" transform="translate(660,184)"/>
<path d="M0 0 C0.09358854 27.64304007 0.16405032 55.28605627 0.20724869 82.92922306 C0.22784273 95.76545075 0.25590291 108.60157979 0.30175781 121.43774414 C0.34172228 132.63037018 0.36745575 143.82292476 0.37635398 155.01562017 C0.38155244 160.93787738 0.39370479 166.85993019 0.42292023 172.78212166 C0.45024122 178.36598189 0.45841145 183.94955515 0.45243073 189.53347588 C0.45352353 191.5735264 0.46137723 193.61358736 0.4768219 195.65357971 C0.62025408 215.59086254 -2.22742433 233.72763541 -16.6875 248.7109375 C-17.450625 249.46632813 -18.21375 250.22171875 -19 251 C-19.61875 251.65226563 -20.2375 252.30453125 -20.875 252.9765625 C-27.98431658 259.94254608 -36.92434822 264.57721568 -45.47363281 269.53466797 C-48.44072495 271.25562729 -51.39483415 272.99789606 -54.34838867 274.74194336 C-56.41129966 275.95891422 -58.47681563 277.17135526 -60.54296875 278.3828125 C-65.59764826 281.34837644 -70.64272409 284.33012897 -75.6875 287.3125 C-76.6141748 287.860271 -77.54084961 288.40804199 -78.49560547 288.97241211 C-80.38691011 290.09044642 -82.27818598 291.20852938 -84.16943359 292.32666016 C-89.6916849 295.59123756 -95.21481771 298.85432336 -100.73779297 302.11767578 C-105.3840882 304.86310108 -110.03015453 307.60891237 -114.67578125 310.35546875 C-122.94608585 315.24454385 -131.2174206 320.13174225 -139.5 325 C-159.06915827 336.50659969 -178.5707222 348.12015993 -198.02539062 359.81933594 C-209.91834227 366.9698663 -221.82815662 374.08994133 -233.7671814 381.16317749 C-244.79645235 387.69786543 -255.79823468 394.2736392 -266.75 400.9375 C-267.90258713 401.63842898 -269.05517501 402.33935674 -270.20776367 403.0402832 C-274.51148306 405.65851196 -278.81471354 408.27753615 -283.11621094 410.89941406 C-285.94990876 412.62471463 -288.78695304 414.34436609 -291.625 416.0625 C-292.45483398 416.56966553 -293.28466797 417.07683105 -294.13964844 417.59936523 C-295.2654834 418.27914429 -295.2654834 418.27914429 -296.4140625 418.97265625 C-297.0632666 419.36718994 -297.7124707 419.76172363 -298.38134766 420.16821289 C-300 421 -300 421 -302 421 C-302.185625 422.19625 -302.37125 423.3925 -302.5625 424.625 C-305.86525673 439.18923977 -314.88094645 451.29984843 -327.25390625 459.46484375 C-340.37925438 466.80234277 -356.07940179 469.48246014 -370.83203125 466.12890625 C-385.61471894 461.15788117 -398.65795695 452.03931744 -406 438 C-407.43193215 434.40232005 -408.70843946 430.81342843 -409.921875 427.13671875 C-411.9100803 421.3521939 -413.38632562 419.42330313 -418.8359375 416.3125 C-419.4219725 415.97372833 -420.00800751 415.63495667 -420.61180115 415.28591919 C-422.52752475 414.18101081 -424.45119898 413.09077246 -426.375 412 C-427.71383894 411.23022736 -429.05196911 410.45922072 -430.3894043 409.68701172 C-433.05074633 408.15080515 -435.71428051 406.61851916 -438.37939453 405.08886719 C-442.89238096 402.49241859 -447.35819961 399.82066802 -451.8125 397.125 C-457.64666219 393.60591314 -463.49327829 390.10887025 -469.35546875 386.63671875 C-470.01140015 386.24817719 -470.66733154 385.85963562 -471.34313965 385.45932007 C-472.70334274 384.65365595 -474.06355198 383.84800223 -475.42376709 383.0423584 C-486.38436586 376.54983803 -497.3127394 370.0103225 -508.1875 363.375 C-518.94823811 356.8097691 -529.79137686 350.39621352 -540.67700195 344.04052734 C-550.83450646 338.10900738 -560.92921033 332.07744182 -571 326 C-573.45738486 324.51925222 -575.91571492 323.04008961 -578.375 321.5625 C-579.24874268 321.0375293 -579.24874268 321.0375293 -580.14013672 320.50195312 C-585.74443625 317.14147746 -591.37231507 313.821116 -597 310.5 C-603.21890637 306.82998121 -609.43508932 303.15625811 -615.625 299.4375 C-616.19508789 299.09525391 -616.76517578 298.75300781 -617.35253906 298.40039062 C-620.9920767 296.21304261 -624.62559168 294.01588165 -628.2578125 291.81640625 C-630.08853779 290.71093107 -631.91926693 289.60546228 -633.75 288.5 C-635.05638428 287.70613892 -635.05638428 287.70613892 -636.38916016 286.89624023 C-637.20433105 286.40454346 -638.01950195 285.91284668 -638.859375 285.40625 C-639.58608398 284.96603516 -640.31279297 284.52582031 -641.06152344 284.07226562 C-644.26697717 282.29917333 -645.6345041 281.91299798 -649.265625 282.77734375 C-650.59399727 283.16321229 -651.92210627 283.54998788 -653.25 283.9375 C-667.5751935 287.74120902 -681.623372 287.03269413 -694.83886719 280.02490234 C-708.98820771 271.71478719 -718.76910786 258.93097486 -723.203125 243.11328125 C-726.18298671 229.92249103 -724.91017149 215.57416063 -718.19921875 203.85546875 C-710.52303903 191.76734885 -700.32075189 182.55459925 -687 177 C-686.31164062 176.7009375 -685.62328125 176.401875 -684.9140625 176.09375 C-672.45397808 171.50095438 -657.01507867 172.87549657 -645 178 C-630.84550852 185.54674362 -620.12682873 196.84567814 -614.625 211.9375 C-612.14679736 220.47808264 -612.66552768 229.20151987 -613 238 C-611.94341187 238.39239868 -611.94341187 238.39239868 -610.86547852 238.79272461 C-607.79178613 240.08772408 -605.02834092 241.62721936 -602.15234375 243.31640625 C-601.59188354 243.64465393 -601.03142334 243.97290161 -600.45397949 244.31109619 C-598.61291247 245.39113588 -596.77509908 246.47657191 -594.9375 247.5625 C-593.64269485 248.32452295 -592.34785378 249.08648487 -591.05297852 249.84838867 C-579.78442445 256.49088013 -568.60111478 263.2715208 -557.43359375 270.08203125 C-551.97066643 273.41331904 -546.49160449 276.71625507 -541 280 C-534.40414467 283.94515912 -527.82999226 287.92453668 -521.265625 291.921875 C-509.88493706 298.85201459 -498.46628131 305.71234386 -487 312.5 C-476.88430226 318.48911846 -466.79365951 324.51575604 -456.75 330.625 C-456.18258087 330.97008606 -455.61516174 331.31517212 -455.0305481 331.67071533 C-449.8087703 334.84742622 -444.5904186 338.02975012 -439.37255859 341.21289062 C-432.31681034 345.51643826 -425.25492265 349.80943686 -418.17919922 354.08007812 C-416.11649487 355.32574753 -414.05551397 356.57427699 -411.99658203 357.82617188 C-409.33852109 359.43867088 -406.6713277 361.03460626 -404 362.625 C-403.23486084 363.09276855 -402.46972168 363.56053711 -401.68139648 364.04248047 C-398.03570789 366.38046 -398.03570789 366.38046 -393.88696289 366.68408203 C-391.65443526 365.87472216 -390.2556331 364.7736191 -388.4375 363.25 C-375.00161959 352.78866722 -359.63336275 352.65172223 -343.33984375 354.390625 C-334.57768692 356.23032415 -325.04977326 361.30128912 -319 368 C-315.01399492 366.53919887 -311.56075492 364.64427385 -307.9375 362.4375 C-307.30666504 362.05529297 -306.67583008 361.67308594 -306.02587891 361.27929688 C-303.68122748 359.85724658 -301.34044055 358.42897021 -299 357 C-294.6264317 354.33097978 -290.25168499 351.66390625 -285.875 349 C-284.98371902 348.45732483 -284.98371902 348.45732483 -284.07443237 347.90368652 C-273.5444023 341.4970343 -262.93372609 335.23608929 -252.28979492 329.02099609 C-244.78777884 324.63984032 -237.31446438 320.21513618 -229.8737793 315.73046875 C-222.04135478 311.01342021 -214.17710404 306.35060614 -206.3125 301.6875 C-196.62830577 295.94543676 -186.95782715 290.1822239 -177.3125 284.375 C-167.57572982 278.51512042 -157.78496587 272.75167734 -147.9758606 267.01416016 C-139.64423928 262.14074034 -131.33187578 257.24087287 -123.0703125 252.24951172 C-118.46781788 249.47173254 -113.85847491 246.70534113 -109.25 243.9375 C-108.19796387 243.30448975 -107.14592773 242.67147949 -106.06201172 242.01928711 C-100.2717351 238.54086805 -94.46573679 235.09372956 -88.6328125 231.6875 C-86.80578868 230.61722669 -84.97899713 229.54655775 -83.15222168 228.4758606 C-81.41989341 227.46372945 -79.68314398 226.45917739 -77.94628906 225.45483398 C-67.03179881 219.44423623 -67.03179881 219.44423623 -59.625 209.8125 C-59.18027344 208.83216797 -59.18027344 208.83216797 -58.7265625 207.83203125 C-58.0960106 206.24209125 -57.54087937 204.6226381 -57 203 C-56.34 203 -55.68 203 -55 203 C-55.02304482 202.13253867 -55.04608965 201.26507734 -55.0698328 200.37132931 C-55.6232126 179.21247277 -56.03622821 158.05487075 -56.2953043 136.89028835 C-56.42394653 126.65443193 -56.5991027 116.42341906 -56.88598633 106.19067383 C-57.13608401 97.26573682 -57.29665223 88.34430636 -57.35221237 79.41596276 C-57.38467918 74.6910396 -57.46020977 69.97614077 -57.64325142 65.25445366 C-58.7118094 36.60085366 -58.7118094 36.60085366 -52.5598259 28.97536087 C-46.65710744 23.98634778 -40.1585086 20.89946318 -32.97178459 18.1793232 C-28.92866876 16.57485284 -25.38968618 14.4165676 -21.75 12.0625 C-20.60769172 11.37390296 -19.46319275 10.68892542 -18.31640625 10.0078125 C-15.95880984 8.58048087 -13.61369002 7.14089081 -11.27734375 5.6796875 C-10.67374023 5.30320068 -10.07013672 4.92671387 -9.44824219 4.53881836 C-7.80010616 3.5079335 -6.15576845 2.47098304 -4.51171875 1.43359375 C-2 0 -2 0 0 0 Z " fill="#137DFB" transform="translate(984,594)"/>
<path d="M0 0 C0.71748985 -0.00205263 1.43497971 -0.00410527 2.17421168 -0.0062201 C4.59095262 -0.01189796 7.00763671 -0.01043188 9.42438316 -0.00901413 C11.16962448 -0.01159732 12.91486521 -0.01461035 14.66010511 -0.01801753 C19.46603183 -0.02609631 24.27194362 -0.02787759 29.07787633 -0.028615 C34.25732719 -0.03046405 39.43677028 -0.03801067 44.61621666 -0.04475021 C55.94686733 -0.05834067 67.27751447 -0.06435947 78.60817194 -0.06876087 C85.6818725 -0.0715223 92.75557168 -0.07575949 99.82927132 -0.08026505 C119.41037536 -0.09245903 138.9914783 -0.10275784 158.57258606 -0.10614014 C159.82619713 -0.1063597 161.07980819 -0.10657927 162.37140747 -0.10680549 C164.2563539 -0.10713291 164.2563539 -0.10713291 166.17938006 -0.10746694 C168.72584065 -0.1079104 171.27230124 -0.10835697 173.81876183 -0.10880661 C175.71346515 -0.10913875 175.71346515 -0.10913875 177.64644532 -0.10947761 C198.11247458 -0.11342537 218.57846823 -0.13087816 239.04448374 -0.15416613 C260.0515906 -0.17787702 281.0586796 -0.19034188 302.06580007 -0.19150805 C313.86250839 -0.192425 325.65917032 -0.19818228 337.45586586 -0.21632767 C347.50159668 -0.23172515 357.54726678 -0.23685121 367.59300716 -0.22858956 C372.71824396 -0.22468173 377.84335848 -0.22561925 382.96858025 -0.23964691 C387.66292158 -0.2523777 392.35704862 -0.25119546 397.05138962 -0.2390562 C398.74726652 -0.23709778 400.44315856 -0.24018434 402.1390142 -0.24890056 C416.06657115 -0.3159369 426.56108729 0.88102783 436.82413292 11.01814651 C443.19760218 17.90582348 447.33784308 25.34345728 447.19522667 34.91658401 C446.38843179 41.27009372 442.83287318 48.03771352 437.91397667 52.13142776 C427.92308436 59.21771627 415.72257258 57.81742647 404.08048058 57.74324417 C401.76187271 57.74678857 399.44326735 57.75256985 397.12467003 57.76041031 C392.14884033 57.7725555 387.17335398 57.76916189 382.19753456 57.75357819 C374.33162619 57.72921634 366.4660172 57.74077362 358.60010338 57.75725174 C347.57628282 57.777482 336.55255625 57.78100607 325.52872276 57.7710762 C324.48134324 57.77014047 324.48134324 57.77014047 323.41280453 57.76918583 C321.99952167 57.76791448 320.58623881 57.76664024 319.17295595 57.76536312 C318.47220714 57.76473074 317.77145834 57.76409835 317.04947472 57.76344681 C316.34807451 57.76280866 315.64667431 57.76217052 314.92401955 57.76151303 C307.12168154 57.75469767 299.31934476 57.75271591 291.51700401 57.75252151 C290.81779003 57.75249868 290.11857605 57.75247585 289.39817376 57.75245233 C277.74170657 57.75252155 266.08527406 57.76460175 254.42882288 57.783481 C246.606647 57.79500633 238.78468936 57.79054157 230.96252561 57.77346063 C226.10467144 57.76557705 221.24688118 57.76980479 216.38902855 57.77717018 C214.13353489 57.77798202 211.87803265 57.77361061 209.6225605 57.76372719 C206.54842162 57.75090556 203.47483837 57.75636063 200.40070152 57.76634598 C199.50450525 57.7580878 198.60830898 57.74982963 197.68495524 57.74132121 C192.94751839 57.77790624 189.73055177 58.00488437 185.91397667 61.13142776 C183.83593845 64.24848509 183.6633435 64.92223303 183.65785027 68.45786095 C183.65161817 69.34654967 183.64538608 70.2352384 183.63896513 71.15085709 C183.64391359 72.61682841 183.64391359 72.61682841 183.64896202 74.11241531 C183.64458075 75.14993435 183.64019948 76.18745338 183.63568544 77.25641239 C183.62331553 80.7501131 183.62517697 84.24366465 183.62686729 87.7373848 C183.62084611 90.23551024 183.61392265 92.73363366 183.60616112 95.2317543 C183.59124483 100.62067443 183.58229337 106.00955514 183.57845116 111.39849091 C183.572705 119.19981857 183.55411939 127.00107577 183.53201061 134.80237232 C183.49627083 147.47194178 183.46796872 160.14151523 183.44571495 172.81111526 C183.44437996 173.56966473 183.44304497 174.3282142 183.44166952 175.10975002 C183.43224519 180.49197561 183.42308383 185.87420163 183.41397667 191.25642776 C183.40358584 197.39412341 183.39306624 203.53181881 183.38223839 209.6695137 C183.38024227 210.80322431 183.38024227 210.80322431 183.37820584 211.95983817 C183.35575431 224.57432523 183.32554597 237.1887824 183.28984594 249.80323875 C183.2682098 257.5813577 183.25356837 265.35943009 183.24800718 273.13757746 C183.24324705 279.10373966 183.22844683 285.06983326 183.21000671 291.03597069 C183.2041349 293.48004897 183.20165763 295.92413815 183.20284653 298.36822319 C183.20400799 301.70842273 183.19297017 305.04837277 183.17899132 308.38853836 C183.18393978 309.83443319 183.18393978 309.83443319 183.18898821 311.30953801 C183.11904222 321.45935516 181.36722726 330.04426904 174.91397667 338.13142776 C168.37558078 343.89710414 161.04293943 346.67159348 152.31632042 346.44783401 C145.24781028 345.51685951 139.47428263 342.63062025 134.91397667 337.13142776 C134.21272667 336.34767776 133.51147667 335.56392776 132.78897667 334.75642776 C127.97815895 328.02128295 127.48193786 322.44927853 127.54889488 314.37675858 C127.54421639 312.76824278 127.54421639 312.76824278 127.53944337 311.12723172 C127.53250807 307.5397839 127.54682413 303.9527365 127.56094933 300.36531448 C127.56011843 297.79114581 127.55790194 295.21697726 127.55440331 292.64281082 C127.54866561 287.1027788 127.55327305 281.56283439 127.56441689 276.02281189 C127.5800874 268.00748599 127.57449955 259.99227776 127.56280045 251.97695006 C127.54391933 238.96447693 127.53468822 225.95201982 127.53507042 212.93953323 C127.53509658 211.77212672 127.53509658 211.77212672 127.53512327 210.58113624 C127.53557569 201.89408048 127.53890806 193.20703048 127.54599571 184.51997757 C127.5466281 183.73848961 127.54726048 182.95700165 127.54791202 182.15183223 C127.54854459 181.37109765 127.54917715 180.59036306 127.54982889 179.78596985 C127.55109866 178.21150661 127.55236408 176.63704336 127.55362511 175.06258011 C127.55456739 173.89568997 127.55456739 173.89568997 127.55552872 172.70522629 C127.56547925 159.73804964 127.55616767 146.77096857 127.53144109 133.80381215 C127.51700104 125.80726634 127.51909237 117.81105666 127.54240309 109.81453015 C127.55887726 103.69161729 127.54973314 97.56899159 127.53103638 91.4460907 C127.5275749 88.93259232 127.5327233 86.41906551 127.5470047 83.90560532 C127.56526466 80.48062277 127.55301046 77.05707095 127.53302574 73.63212967 C127.54574536 72.63204026 127.55846498 71.63195085 127.57157004 70.60155571 C127.51427916 66.06176722 127.38828918 63.80643117 124.72270298 60.01298332 C121.58625214 57.9118863 120.09110479 57.5113028 116.35530663 57.52583694 C115.24932625 57.51777527 114.14334587 57.50971359 113.00385094 57.50140762 C111.80009819 57.51788849 110.59634544 57.53436935 109.35611534 57.55134964 C107.39839952 57.54758535 105.4406837 57.54381975 103.48296797 57.54000473 C101.38315244 57.54074505 99.28373381 57.55382352 97.18398666 57.57040787 C92.79999567 57.60433456 88.41654212 57.60017347 84.03246117 57.59029007 C73.93164309 57.57331175 63.83110027 57.60603451 53.73034477 57.63921738 C44.47870503 57.6691105 35.22736563 57.68838159 25.97568303 57.66755152 C21.62297955 57.65918215 17.27124434 57.67488169 12.91867864 57.70934677 C10.85922243 57.72187277 8.80013769 57.72293462 6.74065208 57.71893692 C4.23729524 57.71414324 1.73381255 57.72700327 -0.7693119 57.76144791 C-8.74934516 57.70372165 -13.75511369 56.25004193 -19.56597042 50.72402573 C-25.55851176 44.12418163 -26.57625338 37.72735317 -26.46102333 29.19392776 C-26.47262489 28.3386348 -26.48422646 27.48334183 -26.49617958 26.60213089 C-26.46032732 18.76841195 -24.80683434 11.85223877 -19.08602333 6.13142776 C-12.60191083 1.41206341 -8.05832157 0.00784084 0 0 Z " fill="#14A3FA" transform="translate(417.0860233306885,477.8685722351074)"/>
<path d="M0 0 C1.47247738 -0.00762953 2.9449508 -0.01605838 4.41741943 -0.02522278 C8.40309424 -0.04709532 12.38869237 -0.05595678 16.3744204 -0.06104922 C18.86859743 -0.06470112 21.36275462 -0.07094545 23.85692406 -0.07805061 C32.56982677 -0.10251909 41.28267016 -0.11559155 49.99560547 -0.11914062 C58.09876859 -0.12277479 66.20155272 -0.15266815 74.30460006 -0.19454521 C81.27725203 -0.22930846 88.24977873 -0.2446901 95.22251672 -0.24538666 C99.38008918 -0.24617736 103.53727507 -0.25482042 107.69475746 -0.28338432 C111.60773841 -0.30966934 115.52001506 -0.31171287 119.43304443 -0.29572868 C120.86242911 -0.29392248 122.29185528 -0.3005296 123.72115135 -0.31654739 C133.25306509 -0.41678813 141.14554091 0.44387642 148.43672657 7.06186771 C154.99086716 13.84021849 154.90633981 22.26679438 154.86621094 31.16259766 C154.70759048 38.43587426 153.83394668 44.55675421 148.85424805 50.16186523 C144.33866711 54.31265033 139.86462554 56.55231939 133.6451416 56.56468201 C132.21947121 56.57492401 132.21947121 56.57492401 130.76499939 56.58537292 C129.73419754 56.58281998 128.70339569 56.58026703 127.64135742 56.57763672 C126.54650528 56.58286346 125.45165314 56.58809021 124.32362366 56.59347534 C121.94900444 56.60370822 119.57436283 56.6094945 117.19972229 56.61135674 C113.44248971 56.61501844 109.68552153 56.63173924 105.92834473 56.65211487 C96.59796551 56.70054051 87.26755074 56.73218853 77.93707275 56.75341797 C70.05093263 56.77138643 62.16498053 56.80075635 54.27894592 56.84745979 C51.7878672 56.85912056 49.29675481 56.86504024 46.8056488 56.86514091 C43.32490311 56.86533263 39.84467857 56.88357444 36.36401367 56.90576172 C34.8178109 56.89889595 34.8178109 56.89889595 33.2403717 56.89189148 C26.33827932 56.89527051 26.33827932 56.89527051 20.50268555 60.30639648 C18.53191505 63.47273246 18.25087337 65.91468967 18.24440002 69.61314392 C18.23757202 70.6884285 18.23074402 71.76371307 18.22370911 72.87158203 C18.22626205 74.04624023 18.228815 75.22089844 18.23144531 76.43115234 C18.22360519 78.29266685 18.22360519 78.29266685 18.21560669 80.19178772 C18.20535912 82.88846823 18.19864803 85.58489414 18.1977253 88.28156853 C18.19578302 92.54696155 18.17772146 96.81219248 18.15696716 101.07752991 C18.10780099 111.67173819 18.07689477 122.26599045 18.05566406 132.86029053 C18.03913824 141.09441014 18.01631829 149.32839065 17.97264332 157.56241709 C17.95087557 161.8010847 17.94280825 166.03948801 17.94503605 170.27820766 C17.94297625 173.5362777 17.92161656 176.79423291 17.90332031 180.05224609 C17.90789749 181.22488007 17.91247467 182.39751404 17.91719055 183.60568237 C17.90754272 184.68378677 17.8978949 185.76189117 17.88795471 186.87266541 C17.88493772 188.27383307 17.88493772 188.27383307 17.88185978 189.70330715 C17.42456509 192.84270538 16.32571573 194.73257827 14.50268555 197.30639648 C12.671875 198.66503906 12.671875 198.66503906 10.6159668 199.70092773 C9.85002197 200.09554199 9.08407715 200.49015625 8.29492188 200.89672852 C7.06745239 201.50170166 7.06745239 201.50170166 5.81518555 202.11889648 C4.97173584 202.54541504 4.12828613 202.97193359 3.25927734 203.41137695 C1.52267487 204.2882381 -0.21652558 205.15997248 -1.95825195 206.02661133 C-4.33664278 207.22541178 -6.68479802 208.46731265 -9.02856445 209.73217773 C-10.41383051 210.46553521 -11.79923948 211.19862283 -13.18481445 211.93139648 C-14.11716919 212.44536987 -14.11716919 212.44536987 -15.06835938 212.96972656 C-19.8452129 215.43812082 -23.25164149 215.76827964 -28.49731445 215.30639648 C-31.30734906 213.51275738 -33.00671913 212.28758713 -34.49731445 209.30639648 C-34.60580949 206.81014094 -34.65393217 204.34111051 -34.65794373 201.84411621 C-34.66557546 200.67607334 -34.66557546 200.67607334 -34.67336136 199.48443365 C-34.68912667 196.86063663 -34.69762176 194.23686723 -34.70605469 191.61303711 C-34.71559014 189.73736393 -34.72548116 187.86169252 -34.73570251 185.98602295 C-34.76713283 179.81158547 -34.78736402 173.63713435 -34.8059082 167.46264648 C-34.80920552 166.41228148 -34.81250285 165.36191647 -34.81590009 164.27972221 C-34.84669058 154.37288757 -34.87339916 144.46604992 -34.89031887 134.55918121 C-34.9122123 121.88817324 -34.95414507 109.21758977 -35.02375644 96.5467515 C-35.07103587 87.63792611 -35.095258 78.72921506 -35.10251576 69.82026815 C-35.10746742 64.50003511 -35.12250164 59.18028009 -35.16226006 53.86018372 C-35.19920755 48.84989753 -35.20750938 43.84036071 -35.19425392 38.82996368 C-35.19430774 36.99581653 -35.20455141 35.16163551 -35.22600555 33.32761383 C-35.42792398 15.0836743 -35.42792398 15.0836743 -28.49731445 7.30639648 C-20.17527351 -0.39870442 -10.81472535 0.00355213 0 0 Z " fill="#1589FA" transform="translate(679.497314453125,613.693603515625)"/>
<path d="M0 0 C5.15067428 2.1632832 9.12770114 6.11270017 12.046875 10.83203125 C13.93420448 15.63047743 13.62324924 21.3163874 12.22265625 26.22265625 C9.47698252 32.3385561 5.00198954 36.44198326 -1 39.3125 C-6.98813914 40.51012783 -11.89570605 41.03357632 -17.3125 37.8125 C-21.78340902 34.66498005 -26.35713342 31.24109974 -28.125 25.9375 C-28.75496167 18.29534203 -29.18038379 11.97930015 -24.125 5.9375 C-16.36647245 -0.11222219 -9.78773788 -3.11601811 0 0 Z " fill="#04070C" transform="translate(323.125,804.0625)"/>
<path d="M0 0 C5.7691752 2.40752119 9.11098208 6.81056683 11.65625 12.41015625 C13.27635457 18.21704791 13.04163739 23.67514026 10.8671875 29.30078125 C8.02557599 34.25068517 3.68971943 37.4556706 -1.40625 39.84765625 C-7.88968834 41.08916572 -13.61225333 40.79286311 -19.34375 37.41015625 C-24.97355041 32.40956883 -27.95612304 27.59652743 -28.65625 20.03515625 C-28.16265063 14.30940356 -26.74884578 10.08108097 -23.03125 5.66015625 C-22.144375 4.91765625 -21.2575 4.17515625 -20.34375 3.41015625 C-19.498125 2.64703125 -18.6525 1.88390625 -17.78125 1.09765625 C-12.075771 -1.70321526 -6.12544578 -1.54157052 0 0 Z " fill="#04070B" transform="translate(635.34375,210.58984375)"/>
<path d="M0 0 C5.31051987 2.34075342 9.05251277 6.17809156 11.57421875 11.38671875 C13.3331744 18.17549701 13.04533505 24.2517225 9.57421875 30.38671875 C7.13701853 34.30047093 4.221633 37.30586897 -0.2109375 38.90625 C-6.05369574 40.17372666 -12.33746432 40.76038653 -17.90234375 38.28515625 C-23.14058402 34.61642618 -26.49902812 30.26106168 -27.98828125 24.03515625 C-28.87881645 18.04259648 -28.50768814 12.6966284 -25.42578125 7.38671875 C-18.13534801 -0.5434872 -10.70192216 -2.70563894 0 0 Z " fill="#04060B" transform="translate(635.42578125,985.61328125)"/>
<path d="M0 0 C1.2375 0.86625 1.2375 0.86625 2.5 1.75 C3.386875 2.36875 4.27375 2.9875 5.1875 3.625 C8.75355831 6.90191845 10.34078398 9.4432811 10.93359375 14.30859375 C10.93488281 15.58863281 10.93617188 16.86867188 10.9375 18.1875 C10.95683594 19.46496094 10.97617187 20.74242187 10.99609375 22.05859375 C10.27763854 27.4045794 7.70044872 31.16703526 3.5 34.5 C-2.73191584 39.17393688 -7.77905247 39.6520705 -15.5 38.75 C-21.15637898 37.08187626 -24.62172625 34.28867458 -27.5625 29.1875 C-30.02124005 23.41032058 -30.66434746 17.92935831 -29.5 11.75 C-27.30882328 6.57295922 -23.86314755 1.85444457 -18.6875 -0.6640625 C-12.54683282 -2.30888406 -5.95716859 -2.12756021 0 0 Z " fill="#04060B" transform="translate(964.5,396.25)"/>
<path d="M0 0 C0.66 0 1.32 0 2 0 C3.22024256 12.62753353 3.13454297 25.22312287 3.11352539 37.89599609 C3.1132429 40.29211933 3.11340246 42.68824266 3.1139679 45.08436584 C3.1142239 50.88308633 3.10991572 56.68179009 3.10353024 62.48050676 C3.09634279 69.23555906 3.0948817 75.99060908 3.09374207 82.74566467 C3.09156043 94.789431 3.08492455 106.8331905 3.07543945 118.87695312 C3.06624227 130.56738247 3.05917275 142.25780995 3.05493164 153.94824219 C3.05466892 154.67040398 3.05440619 155.39256578 3.05413551 156.13661127 C3.05283035 159.75995169 3.05156667 163.38329212 3.05032361 167.00663257 C3.03997867 197.00442649 3.02230966 227.00221244 3 257 C3.88260498 256.4544043 4.76520996 255.90880859 5.67456055 255.34667969 C6.84942105 254.62170336 8.02430855 253.89677078 9.19921875 253.171875 C9.77893433 252.81335449 10.3586499 252.45483398 10.95593262 252.08544922 C30.5567613 240 30.5567613 240 35 240 C35.33 238.68 35.66 237.36 36 236 C36.78375 235.87625 37.5675 235.7525 38.375 235.625 C41.14057822 235.20882007 41.14057822 235.20882007 43 233 C44.32 233 45.64 233 47 233 C47 232.34 47 231.68 47 231 C49.475 230.01 49.475 230.01 52 229 C52.33 158.71 52.66 88.42 53 16 C53.66 16 54.32 16 55 16 C55.21015762 43.6679545 55.36890849 71.33578955 55.46630955 99.00438118 C55.51273494 111.85117381 55.57603854 124.6974708 55.67895508 137.54394531 C55.76860524 148.73978338 55.82671098 159.93526255 55.84679645 171.13144958 C55.85853935 177.06104764 55.88617186 182.98961887 55.95157051 188.91888809 C56.01261907 194.49892364 56.03151279 200.07750867 56.01796913 205.65784645 C56.02044703 207.70657927 56.03837637 209.75536012 56.07284927 211.8038044 C56.32097348 227.30709015 56.32097348 227.30709015 53.04882812 231.50054836 C50.72346579 233.0844231 48.64098707 234.06185914 46 235 C44.836035 235.67375373 43.68562137 236.37179888 42.55419922 237.09887695 C41.48186035 237.72238037 40.40952148 238.34588379 39.3046875 238.98828125 C38.71352646 239.33328674 38.12236542 239.67829224 37.51329041 240.03375244 C35.63532704 241.12920922 33.75523757 242.22095218 31.875 243.3125 C29.29218141 244.81635956 26.71040256 246.32199698 24.12890625 247.828125 C23.50479355 248.19196793 22.88068085 248.55581085 22.23765564 248.93067932 C16.2627766 252.41915165 10.34802581 256.00104115 4.45703125 259.62890625 C2 261 2 261 0 261 C0 174.87 0 88.74 0 0 Z " fill="#08B9E1" transform="translate(271,426)"/>
<path d="M0 0 C1.48125366 0.01061211 1.48125366 0.01061211 2.99243164 0.0214386 C6.1207523 0.04924169 9.24722798 0.11195408 12.375 0.17578125 C14.50648442 0.2008823 16.63799712 0.22369229 18.76953125 0.24414062 C23.97197481 0.29902145 29.17335555 0.38250412 34.375 0.48828125 C32.375 2.48828125 32.375 2.48828125 29.47680664 2.69946289 C28.25856201 2.68262451 27.04031738 2.66578613 25.78515625 2.6484375 C24.79641762 2.64063515 24.79641762 2.64063515 23.78770447 2.63267517 C21.67074729 2.61484655 19.5542711 2.58376927 17.4375 2.55078125 C-0.16388215 1.2286803 -0.16388215 1.2286803 -15.625 7.48828125 C-16.5325 8.23078125 -17.44 8.97328125 -18.375 9.73828125 C-22.85488132 15.21369176 -22.96185163 22.11490706 -22.875 28.92578125 C-22.87113281 29.66497803 -22.86726563 30.4041748 -22.86328125 31.16577148 C-22.77870479 36.50877166 -22.12304042 41.33876732 -20.625 46.48828125 C-19.635 46.48828125 -18.645 46.48828125 -17.625 46.48828125 C-16.60471135 47.8061541 -15.60528616 49.14038778 -14.625 50.48828125 C-13.635 50.81828125 -12.645 51.14828125 -11.625 51.48828125 C-11.625 52.14828125 -11.625 52.80828125 -11.625 53.48828125 C32.265 53.48828125 76.155 53.48828125 121.375 53.48828125 C121.375 54.14828125 121.375 54.80828125 121.375 55.48828125 C122.035 55.81828125 122.695 56.14828125 123.375 56.48828125 C106.17217992 56.60521159 88.9694843 56.69331669 71.76635742 56.74734211 C63.77818497 56.77309662 55.7902598 56.80819405 47.80224609 56.86547852 C40.83785933 56.91539833 33.87365171 56.94759229 26.909091 56.95872372 C23.2231344 56.96522812 19.53769017 56.98045658 15.85189819 57.01693153 C11.73176589 57.05737202 7.61251776 57.05822521 3.4921875 57.0559082 C2.27730148 57.07388458 1.06241547 57.09186096 -0.18928528 57.11038208 C-8.22649717 57.0614985 -13.25280117 55.64818348 -19.10427856 50.08083057 C-25.09837016 43.48280804 -26.11521853 37.08335363 -26 28.55078125 C-26.01160156 27.69548828 -26.02320313 26.84019531 -26.03515625 25.95898438 C-25.99930399 18.12526543 -24.34581101 11.20909226 -18.625 5.48828125 C-12.58892178 0.58189834 -7.63449541 -0.20892134 0 0 Z " fill="#06CFEF" transform="translate(416.625,478.51171875)"/>
<path d="M0 0 C0.66 0 1.32 0 2 0 C2.0467324 27.74669019 2.08199495 55.49337447 2.10362434 83.24009609 C2.11393443 96.12353774 2.12798969 109.00695492 2.15087891 121.89038086 C2.17082092 133.12030445 2.18371839 144.35021033 2.18817699 155.58015114 C2.19078298 161.52562374 2.19690273 167.47104565 2.21146011 173.416502 C2.22505678 179.01506083 2.22921839 184.61354819 2.22621536 190.21212196 C2.22676459 192.26435612 2.23072956 194.31659271 2.23841095 196.36881256 C2.24840478 199.1771093 2.24595269 201.98513846 2.24050903 204.79344177 C2.24633472 205.59988913 2.2521604 206.4063365 2.25816262 207.23722166 C2.22960028 212.71260857 1.38086564 217.70535907 0 223 C-2 219.25 -2 219.25 -2 217 C-1.34 217 -0.68 217 0 217 C0 145.39 0 73.78 0 0 Z " fill="#0A4597" transform="translate(982,594)"/>
<path d="M0 0 C-0.33 0.99 -0.66 1.98 -1 3 C-2.19496094 3.04898438 -3.38992188 3.09796875 -4.62109375 3.1484375 C-18.2775001 2.88601995 -18.2775001 2.88601995 -30 8 C-30.7425 8.28875 -31.485 8.5775 -32.25 8.875 C-41.47425019 12.6485569 -49.98145252 21.13003759 -55 29.6875 C-55.66 30.780625 -56.32 31.87375 -57 33 C-57.99 33 -58.98 33 -60 33 C-55.23078843 19.88466819 -43.24052181 10.5003367 -31.13671875 4.44140625 C-20.66798769 -0.36925597 -11.35350513 -0.33392662 0 0 Z " fill="#11A1E9" transform="translate(325,768)"/>
<path d="M0 0 C0.33 0 0.66 0 1 0 C1.8203627 27.27269617 2.09286525 54.52932558 2.0625 81.8125 C2.06164398 82.58711075 2.06078796 83.3617215 2.05990601 84.1598053 C2.04849482 93.77322769 2.02838846 103.38661227 2 113 C2.99 113.33 3.98 113.66 5 114 C2.525 114.99 2.525 114.99 0 116 C0 77.72 0 39.44 0 0 Z " fill="#06DEFD" transform="translate(272,570)"/>
<path d="M0 0 C2.41168893 0.41580844 3.69216469 0.66417967 5.375 2.5 C7.69254683 4.63927399 9.93559899 4.659511 13 5 C13 5.66 13 6.32 13 7 C22.87261501 12.71572448 37.16977284 13.94564327 48.3046875 11.4921875 C48.86414063 11.32976563 49.42359375 11.16734375 50 11 C51.99963028 10.96154557 54.00051633 10.95455719 56 11 C47.81418941 16.45720706 35.374713 16.33749275 25.95654297 14.62939453 C16.27588477 12.41805331 7.59771268 8.51849213 0 2 C0 1.34 0 0.68 0 0 Z " fill="#1891E0" transform="translate(279,865)"/>
<path d="M0 0 C-0.61182129 0.35602295 -1.22364258 0.7120459 -1.85400391 1.07885742 C-16.60228585 9.66394465 -31.31958604 18.29936133 -46 27 C-46.66 26.34 -47.32 25.68 -48 25 C-23.3314121 9 -23.3314121 9 -18 9 C-17.67 7.68 -17.34 6.36 -17 5 C-16.21625 4.87625 -15.4325 4.7525 -14.625 4.625 C-11.85942178 4.20882007 -11.85942178 4.20882007 -10 2 C-8.68 2 -7.36 2 -6 2 C-6 1.34 -6 0.68 -6 0 C-3.50907189 -1.24546405 -2.58919267 -0.7767578 0 0 Z " fill="#05D0F0" transform="translate(324,657)"/>
<path d="M0 0 C0.99 0.33 1.98 0.66 3 1 C-5.58098471 10.71670328 -17.97754186 19.23356891 -31.28222656 20.15869141 C-36.52937235 20.32738663 -41.75574003 20.2097704 -47 20 C-47 19.67 -47 19.34 -47 19 C-45.87722656 18.89042969 -44.75445313 18.78085937 -43.59765625 18.66796875 C-35.72164535 17.85178359 -28.39282454 16.98927253 -21 14 C-19.865625 13.62875 -18.73125 13.2575 -17.5625 12.875 C-15.05096711 12.08139683 -15.05096711 12.08139683 -13 11 C-13 10.34 -13 9.68 -13 9 C-11.68 9.33 -10.36 9.66 -9 10 C-9 9.34 -9 8.68 -9 8 C-7.68 7.67 -6.36 7.34 -5 7 C-4.896875 6.360625 -4.79375 5.72125 -4.6875 5.0625 C-4.460625 4.381875 -4.23375 3.70125 -4 3 C-3.01 2.67 -2.02 2.34 -1 2 C-0.67 1.34 -0.34 0.68 0 0 Z " fill="#1A83F1" transform="translate(994,452)"/>
<path d="M0 0 C4.02207763 1.34069254 4.39126537 3.06976834 6.375 6.75 C8.88875676 11.2438072 11.2210674 14.56460672 15 18 C15 18.66 15 19.32 15 20 C15.99 20 16.98 20 18 20 C18 20.66 18 21.32 18 22 C21.3171411 23.4216319 24.44219804 24.39009109 28 25 C27.01 25.99 26.02 26.98 25 28 C13.88218356 23.59482745 6.2612701 14.69043734 0.92578125 4.21484375 C0 2 0 2 0 0 Z " fill="#1083E8" transform="translate(904,438)"/>
<path d="M0 0 C0 0.33 0 0.66 0 1 C-4.10591127 1.17851788 -7.61743372 0.92986015 -11.625 0 C-16.86964848 -1.16010658 -21.8656145 -1.07902305 -27.21484375 -0.875 C-30 -1 -30 -1 -33 -3 C-21.39162339 -5.61507385 -11.08902364 -3.43560345 0 0 Z " fill="#1482DB" transform="translate(976,362)"/>
<path d="M0 0 C1.33333333 0.66666667 2.66666667 1.33333333 4 2 C4.99193359 2.41958984 4.99193359 2.41958984 6.00390625 2.84765625 C9.530169 4.88336567 10.66637136 8.27854103 12 12 C13.03550223 16.79517184 13.38411214 21.23250262 12 26 C11.34 25.67 10.68 25.34 10 25 C9.7941058 22.94399931 9.68567822 20.87789328 9.625 18.8125 C9.2796211 13.35789528 8.69721036 10.21071179 5 6 C4.0820569 4.87604126 3.1653926 3.75103693 2.25 2.625 C1.5075 1.75875 0.765 0.8925 0 0 Z " fill="#1299EB" transform="translate(326,805)"/>
<path d="M0 0 C0.33 0 0.66 0 1 0 C1.08719631 4.56237931 1.14045922 9.12454386 1.1875 13.6875 C1.21263672 14.98107422 1.23777344 16.27464844 1.26367188 17.60742188 C1.27817383 19.47817383 1.27817383 19.47817383 1.29296875 21.38671875 C1.31653442 23.10701294 1.31653442 23.10701294 1.34057617 24.86206055 C0.96110296 28.35838253 0.08943313 30.20011548 -2 33 C-4.1875 34.3125 -4.1875 34.3125 -6 35 C-6.495 33.515 -6.495 33.515 -7 32 C-6.02804687 31.45988281 -5.05609375 30.91976562 -4.0546875 30.36328125 C-1.6145042 28.32979516 -1.04331445 27.21653635 -0.41113281 24.05615234 C-0.18393706 20.42359033 -0.11746848 16.82710736 -0.125 13.1875 C-0.104375 11.92228516 -0.08375 10.65707031 -0.0625 9.35351562 C-0.01542836 6.23501958 0.00444316 3.11877854 0 0 Z " fill="#1981FE" transform="translate(696,778)"/>
<path d="M0 0 C0.83144531 0.00902344 1.66289062 0.01804687 2.51953125 0.02734375 C4.55481337 0.0507378 6.58994564 0.08660275 8.625 0.125 C8.295 1.115 7.965 2.105 7.625 3.125 C-0.295 3.455 -8.215 3.785 -16.375 4.125 C-15.375 2.125 -15.375 2.125 -12.8984375 1.0078125 C-8.50921681 -0.09192572 -4.50062086 -0.09331431 0 0 Z " fill="#128FD9" transform="translate(316.375,767.875)"/>
<path d="M0 0 C0.66 0.33 1.32 0.66 2 1 C1 3 1 3 -2.4375 4.625 C-9.96075139 7.06331763 -18.19409517 6.22735645 -26 6 C-26 5.67 -26 5.34 -26 5 C-24.87722656 4.89042969 -23.75445313 4.78085937 -22.59765625 4.66796875 C-14.64730724 3.84178559 -7.53896443 2.77751321 0 0 Z " fill="#197AE6" transform="translate(973,466)"/>
<path d="M0 0 C0.66 0.33 1.32 0.66 2 1 C0.73046875 2.46484375 -0.5390625 3.9296875 -1.80859375 5.39453125 C-4.34362893 8.81059505 -4.16388367 12.2174292 -4.1875 16.3125 C-4.20167969 17.42238281 -4.21585937 18.53226563 -4.23046875 19.67578125 C-3.99333157 23.0961836 -3.22108501 25.80973443 -2 29 C-5.93416553 25.44656017 -6.86233691 23.35627983 -7.16796875 18.125 C-7.17441406 17.09375 -7.18085938 16.0625 -7.1875 15 C-7.20167969 13.96875 -7.21585937 12.9375 -7.23046875 11.875 C-7.00276947 9.03454797 -6.46504061 7.40892052 -5 5 C-4.34 5 -3.68 5 -3 5 C-2.690625 4.360625 -2.38125 3.72125 -2.0625 3.0625 C-1 1 -1 1 0 0 Z " fill="#169CE9" transform="translate(300,807)"/>
<path d="M0 0 C0.66 0.33 1.32 0.66 2 1 C1.45730469 1.51949219 0.91460937 2.03898437 0.35546875 2.57421875 C-3.38157385 6.21699361 -6.32998848 9.50952608 -9 14 C-10.91758063 15.80302387 -12.91819115 17.38081534 -15 19 C-15.66 18.67 -16.32 18.34 -17 18 C-14.54220967 15.37449113 -12.08367499 12.74968042 -9.625 10.125 C-8.92632812 9.37863281 -8.22765625 8.63226563 -7.5078125 7.86328125 C-6.8375 7.14785156 -6.1671875 6.43242188 -5.4765625 5.6953125 C-4.85861816 5.03547363 -4.24067383 4.37563477 -3.60400391 3.69580078 C-2.42157912 2.44570602 -1.21673031 1.21673031 0 0 Z " fill="#252527" transform="translate(131,95)"/>
<path d="M0 0 C3.29749918 1.55121792 6.37582837 3.37605756 9.4609375 5.3046875 C10.04166016 5.66046875 10.62238281 6.01625 11.22070312 6.3828125 C13.6390028 7.88131958 15.75468319 9.28593319 17.7734375 11.3046875 C16.7834375 11.7996875 16.7834375 11.7996875 15.7734375 12.3046875 C14.17285156 11.51611328 14.17285156 11.51611328 12.2890625 10.25 C11.60070312 9.80011719 10.91234375 9.35023438 10.203125 8.88671875 C8.76440775 7.92499557 7.32688076 6.9614891 5.890625 5.99609375 C1.83826581 3.35226833 -1.27063823 1.66313485 -6.2265625 1.3046875 C-3.82000172 -0.29968635 -2.82627383 -0.88259078 0 0 Z " fill="#1693EB" transform="translate(340.2265625,873.6953125)"/>
<path d="M0 0 C0.66 0 1.32 0 2 0 C2.67154933 1.28913487 3.33708859 2.58140204 4 3.875 C4.37125 4.59429688 4.7425 5.31359375 5.125 6.0546875 C6 8 6 8 6 10 C6.66 10 7.32 10 8 10 C11 15.625 11 15.625 11 19 C5.86170105 14.61733325 2.76113203 9.12952333 0 3 C0 2.01 0 1.02 0 0 Z " fill="#139AE6" transform="translate(264,843)"/>
<path d="M0 0 C3.55038751 1.70768079 6.79398379 3.74198184 10.09765625 5.87890625 C12.10493004 7.15121193 12.10493004 7.15121193 15 8 C15 8.66 15 9.32 15 10 C16.65 10 18.3 10 20 10 C20 10.66 20 11.32 20 12 C20.66 12.33 21.32 12.66 22 13 C19 14 19 14 16.9152832 13.15136719 C14.37386063 11.69552698 11.83551751 10.23760213 9.3125 8.75 C8.41982422 8.24597656 7.52714844 7.74195313 6.60742188 7.22265625 C5.76373047 6.73152344 4.92003906 6.24039063 4.05078125 5.734375 C3.27387939 5.28288086 2.49697754 4.83138672 1.6965332 4.36621094 C1.13667725 3.91536133 0.57682129 3.46451172 0 3 C0 2.01 0 1.02 0 0 Z " fill="#178EEA" transform="translate(359,885)"/>
<path d="M0 0 C0.33 0 0.66 0 1 0 C1.0499542 3.96521085 1.08597787 7.93029631 1.10986328 11.89575195 C1.12470245 13.89736377 1.15013361 15.89888812 1.17578125 17.90039062 C1.21124961 24.94086034 0.89368974 31.20806555 -1 38 C-3 34.25 -3 34.25 -3 32 C-2.34 32 -1.68 32 -1 32 C-0.67 21.44 -0.34 10.88 0 0 Z " fill="#0B48A0" transform="translate(983,779)"/>
<path d="M0 0 C1.98 0 3.96 0 6 0 C2.53267618 4.22108986 -1.89530044 6.31041634 -7 8 C-8.32 8 -9.64 8 -11 8 C-11 7.01 -11 6.02 -11 5 C-7.7 4.67 -4.4 4.34 -1 4 C-0.67 2.68 -0.34 1.36 0 0 Z " fill="#177FE6" transform="translate(851,527)"/>
<path d="M0 0 C0.99 0.33 1.98 0.66 3 1 C0.44356039 3.19123396 -1.5155481 4.84585621 -4.75 5.875 C-5.4925 6.24625 -6.235 6.6175 -7 7 C-7.37366113 8.99285937 -7.70740515 10.99363529 -8 13 C-10.0625 14.375 -10.0625 14.375 -12 15 C-10.30516691 8.9268481 -7.91625743 5.48607719 -2.9375 1.625 C-1.968125 1.08875 -0.99875 0.5525 0 0 Z " fill="#1290E1" transform="translate(658,616)"/>
<path d="M0 0 C0.99 0.33 1.98 0.66 3 1 C2.319375 1.33 1.63875 1.66 0.9375 2 C-2.47213115 4.321451 -4.7444901 6.99274023 -7.3515625 10.16015625 C-9 12 -9 12 -12 14 C-11.54266394 9.41059255 -10.05176472 7.67539954 -6.5625 4.75 C-5.75941406 4.06421875 -4.95632813 3.3784375 -4.12890625 2.671875 C-2 1 -2 1 0 0 Z " fill="#18B9F0" transform="translate(297,384)"/>
<path d="M0 0 C0.99 0.33 1.98 0.66 3 1 C3.33 6.94 3.66 12.88 4 19 C3.34 19.33 2.68 19.66 2 20 C0.89210465 15.94691667 0.66268733 11.92888626 0.4375 7.75 C0.39431641 7.00492187 0.35113281 6.25984375 0.30664062 5.4921875 C0.20103275 3.661651 0.10005799 1.83084824 0 0 Z " fill="#117ED8" transform="translate(898,409)"/>
<path d="M0 0 C2.85579076 -0.13599004 5.70501175 -0.23454826 8.5625 -0.3125 C9.36236328 -0.35439453 10.16222656 -0.39628906 10.98632812 -0.43945312 C17.26995776 -0.56769046 20.22411327 0.92927776 25 5 C24.34 5.66 23.68 6.32 23 7 C22.236875 6.360625 21.47375 5.72125 20.6875 5.0625 C16.32845362 1.71718534 12.57881019 1.87357653 7.3125 1.9375 C6.61060547 1.94201172 5.90871094 1.94652344 5.18554688 1.95117188 C3.45699462 1.96293073 1.72848635 1.98086546 0 2 C0 1.34 0 0.68 0 0 Z " fill="#1679D4" transform="translate(946,394)"/>
<path d="M0 0 C0.99 0.33 1.98 0.66 3 1 C-2.60854795 6.08682256 -6.15397241 7.15477142 -13.8125 7.0625 C-15.27623047 7.04896484 -15.27623047 7.04896484 -16.76953125 7.03515625 C-17.87361328 7.01775391 -17.87361328 7.01775391 -19 7 C-19 6.67 -19 6.34 -19 6 C-17.69675781 5.85304688 -17.69675781 5.85304688 -16.3671875 5.703125 C-9.74680668 4.84410467 -5.29241253 4.03894641 0 0 Z " fill="#1393E7" transform="translate(329,838)"/>
<path d="M0 0 C1.70016844 0.08178114 3.40336297 0.10749501 5.10546875 0.09765625 C6.57983398 0.09282227 6.57983398 0.09282227 8.08398438 0.08789062 C9.10814453 0.07951172 10.13230469 0.07113281 11.1875 0.0625 C12.22326172 0.05798828 13.25902344 0.05347656 14.32617188 0.04882812 C16.88417266 0.0370401 19.44205733 0.02058515 22 0 C22 0.33 22 0.66 22 1 C16.73360388 1.86961627 11.64664213 2.18281682 6.3125 2.1875 C5.19391602 2.20586914 5.19391602 2.20586914 4.05273438 2.22460938 C0.21721256 2.23487393 -2.752282 2.16800173 -6 0 C-3 -1 -3 -1 0 0 Z " fill="#0F5DCB" transform="translate(619,1059)"/>
<path d="M0 0 C0.33 0 0.66 0 1 0 C2.72107623 10.37757848 2.72107623 10.37757848 0.953125 14.35546875 C-0.4375 16.25 -0.4375 16.25 -3 19 C-3.99 18.67 -4.98 18.34 -6 18 C-5.360625 17.21625 -4.72125 16.4325 -4.0625 15.625 C-1.21139304 11.99631842 -0.80781416 9.92457403 -0.4375 5.375 C-0.35371094 4.37210937 -0.26992188 3.36921875 -0.18359375 2.3359375 C-0.12300781 1.56507813 -0.06242188 0.79421875 0 0 Z " fill="#0D70CE" transform="translate(975,411)"/>
<path d="M0 0 C0.99 0 1.98 0 3 0 C5.15059309 3.53186832 5.3797728 6.66287993 5.625 10.75 C5.69976563 11.92046875 5.77453125 13.0909375 5.8515625 14.296875 C5.90054688 15.18890625 5.94953125 16.0809375 6 17 C5.34 17 4.68 17 4 17 C3.87882813 16.10796875 3.75765625 15.2159375 3.6328125 14.296875 C3.46523438 13.12640625 3.29765625 11.9559375 3.125 10.75 C2.96257813 9.58984375 2.80015625 8.4296875 2.6328125 7.234375 C2.08179569 4.41806687 1.44203518 2.44782443 0 0 Z " fill="#1189F4" transform="translate(972,403)"/>
<path d="M0 0 C0.66 4.62 1.32 9.24 2 14 C-1.66670726 11.5555285 -1.93344791 10.18416588 -3 6 C-3.125 3.125 -3.125 3.125 -3 1 C-1 0 -1 0 0 0 Z " fill="#0F79D5" transform="translate(935,411)"/>
<path d="M0 0 C0.33 0.66 0.66 1.32 1 2 C-0.14453125 4.56640625 -0.14453125 4.56640625 -1.8125 7.5625 C-2.35519531 8.55378906 -2.89789062 9.54507813 -3.45703125 10.56640625 C-5 13 -5 13 -7 14 C-7 12.02 -7 10.04 -7 8 C-6.01 7.67 -5.02 7.34 -4 7 C-2.9349985 5.03384339 -1.93166826 3.03273074 -1 1 C-0.67 0.67 -0.34 0.34 0 0 Z " fill="#1876E3" transform="translate(598,802)"/>
<path d="M0 0 C0 0.99 0 1.98 0 3 C-1.65 3.66 -3.3 4.32 -5 5 C-5 5.66 -5 6.32 -5 7 C-8 9 -8 9 -10.1875 8.625 C-10.785625 8.41875 -11.38375 8.2125 -12 8 C-8.2064129 4.78119883 -4.34170523 2.3836813 0 0 Z " fill="#19ADE6" transform="translate(333,362)"/>
<path d="M0 0 C-1.92989218 1.19982444 -3.86919228 2.38452818 -5.8125 3.5625 C-7.43091797 4.55443359 -7.43091797 4.55443359 -9.08203125 5.56640625 C-12 7 -12 7 -15 6 C-12 4 -12 4 -10 4 C-10 3.34 -10 2.68 -10 2 C-4.10714286 -1.34821429 -4.10714286 -1.34821429 0 0 Z " fill="#1AACE7" transform="translate(434,367)"/>
<path d="M0 0 C0.66 0.33 1.32 0.66 2 1 C-1.38168431 4.68006822 -4.42521756 6.9785845 -9 9 C-8.375 6.6875 -8.375 6.6875 -7 4 C-3.9375 2.25 -3.9375 2.25 -1 1 C-0.67 0.67 -0.34 0.34 0 0 Z " fill="#21B1F5" transform="translate(557,290)"/>
<path d="M0 0 C2.41168893 0.41580844 3.69216469 0.66417967 5.375 2.5 C7.69254683 4.63927399 9.93559899 4.659511 13 5 C12.67 6.32 12.34 7.64 12 9 C7.50985376 7.50328459 3.52151236 5.16631659 0 2 C0 1.34 0 0.68 0 0 Z " fill="#1999EA" transform="translate(279,865)"/>
<path d="M0 0 C-1.5830577 4.2742558 -4.50568404 6.26531794 -8 9 C-7.64598897 5.81390075 -7.16972964 4.20933322 -5.125 1.6875 C-3 0 -3 0 0 0 Z " fill="#06111D" transform="translate(608,536)"/>
<path d="M0 0 C1.20220203 3.53094302 0.79532349 6.12898982 0.0625 9.75 C-0.13214844 10.73484375 -0.32679688 11.7196875 -0.52734375 12.734375 C-0.68332031 13.48203125 -0.83929688 14.2296875 -1 15 C-3 13 -3 13 -3.046875 10.72265625 C-2.94890625 9.84480469 -2.8509375 8.96695312 -2.75 8.0625 C-2.66234375 7.18722656 -2.5746875 6.31195313 -2.484375 5.41015625 C-2 3 -2 3 0 0 Z " fill="#15B7EC" transform="translate(275,413)"/>
<path d="M0 0 C0.99 0.33 1.98 0.66 3 1 C0.63055987 3.61885488 -1.83733102 5.41866551 -5 7 C-5.99 6.67 -6.98 6.34 -8 6 C-5.63055987 3.38114512 -3.16266898 1.58133449 0 0 Z " fill="#0D69E2" transform="translate(698,943)"/>
<path d="M0 0 C1.60568666 0.28317926 3.20952047 0.57687791 4.8125 0.875 C6.15248047 1.11863281 6.15248047 1.11863281 7.51953125 1.3671875 C10 2 10 2 13 4 C7.80790596 4.21192221 3.873261 3.5912689 -1 2 C-0.67 1.34 -0.34 0.68 0 0 Z " fill="#1184EC" transform="translate(963,359)"/>
<path d="M0 0 C0.556875 0.226875 1.11375 0.45375 1.6875 0.6875 C-0.85706151 3.65615509 -3.80244665 5.0494751 -7.3125 6.6875 C-7.3125 5.3675 -7.3125 4.0475 -7.3125 2.6875 C-4.7516601 0.62460119 -3.3245861 -0.44926839 0 0 Z " fill="#1EAEF0" transform="translate(576.3125,280.3125)"/>
<path d="M0 0 C0.66 0.33 1.32 0.66 2 1 C2 1.66 2 2.32 2 3 C2.61875 3.268125 3.2375 3.53625 3.875 3.8125 C6 5 6 5 8 8 C4.41087588 8 3.89142971 7.33563446 1.3125 5 C0.68988281 4.443125 0.06726563 3.88625 -0.57421875 3.3125 C-1.04472656 2.879375 -1.51523438 2.44625 -2 2 C-1.34 1.34 -0.68 0.68 0 0 Z " fill="#1D1D20" transform="translate(132,1141)"/>
<path d="M0 0 C0 0.99 0 1.98 0 3 C-1.45505358 3.52992692 -2.91418127 4.0486789 -4.375 4.5625 C-5.59316406 4.99755859 -5.59316406 4.99755859 -6.8359375 5.44140625 C-9 6 -9 6 -11 5 C-9.54462432 4.16151196 -8.08559627 3.32936066 -6.625 2.5 C-5.81289063 2.0359375 -5.00078125 1.571875 -4.1640625 1.09375 C-2 0 -2 0 0 0 Z " fill="#106EDB" transform="translate(608,951)"/>
<path d="M0 0 C-1.4638611 4.39158329 -3.97831338 4.87947433 -8 7 C-8.66 6.34 -9.32 5.68 -10 5 C-8.71186658 4.16121545 -7.41936744 3.32913217 -6.125 2.5 C-5.40570312 2.0359375 -4.68640625 1.571875 -3.9453125 1.09375 C-2 0 -2 0 0 0 Z " fill="#1067E1" transform="translate(732,924)"/>
<path d="M0 0 C0.66 0.33 1.32 0.66 2 1 C0.12050295 4.57104439 -1.17053157 6.54744301 -5 8 C-5.33 7.01 -5.66 6.02 -6 5 C-4.02 3.35 -2.04 1.7 0 0 Z " fill="#1773ED" transform="translate(695,805)"/>
<path d="M0 0 C-1 3 -1 3 -2.6875 4.1875 C-5.54969093 5.19313465 -7.98827908 5.13689641 -11 5 C-4.63636364 0 -4.63636364 0 0 0 Z " fill="#169AE4" transform="translate(300,771)"/>
<path d="M0 0 C-3.63 1.98 -7.26 3.96 -11 6 C-11 5.01 -11 4.02 -11 3 C-9.35 2.67 -7.7 2.34 -6 2 C-6 1.34 -6 0.68 -6 0 C-4 -1 -4 -1 0 0 Z " fill="#02C5E7" transform="translate(324,657)"/>
<path d="M0 0 C0.56203125 0.22558594 1.1240625 0.45117188 1.703125 0.68359375 C0.713125 0.68359375 -0.276875 0.68359375 -1.296875 0.68359375 C-1.296875 1.34359375 -1.296875 2.00359375 -1.296875 2.68359375 C-2.58338206 3.38070106 -3.87628165 4.06602251 -5.171875 4.74609375 C-6.25082031 5.32037109 -6.25082031 5.32037109 -7.3515625 5.90625 C-7.99351562 6.16277344 -8.63546875 6.41929687 -9.296875 6.68359375 C-9.956875 6.35359375 -10.616875 6.02359375 -11.296875 5.68359375 C-9.89135201 4.64747104 -8.47195806 3.6301445 -7.046875 2.62109375 C-6.25796875 2.05261719 -5.4690625 1.48414063 -4.65625 0.8984375 C-2.296875 -0.31640625 -2.296875 -0.31640625 0 0 Z " fill="#07BCD8" transform="translate(408.296875,479.31640625)"/>
<path d="M0 0 C1.32 0.66 2.64 1.32 4 2 C3.34 2 2.68 2 2 2 C1.71125 2.94875 1.4225 3.8975 1.125 4.875 C0 8 0 8 -2 10 C-1.85950482 8.52031676 -1.71245174 7.04125484 -1.5625 5.5625 C-1.48128906 4.73878906 -1.40007812 3.91507813 -1.31640625 3.06640625 C-1 1 -1 1 0 0 Z " fill="#12B0FA" transform="translate(264,804)"/>
<path d="M0 0 C0.66 0 1.32 0 2 0 C0.125 5.75 0.125 5.75 -1 8 C-1.99 8 -2.98 8 -4 8 C-2.25 2.25 -2.25 2.25 0 0 Z " fill="#15B8EB" transform="translate(280,401)"/>
<path d="M0 0 C0.75 1.5625 0.75 1.5625 1 4 C-0.13084437 6.50286409 -1.52139516 8.67007722 -3 11 C-3.66 11 -4.32 11 -5 11 C-3.77472971 6.94718288 -2.30119506 3.55639236 0 0 Z " fill="#2C2C2D" transform="translate(85,154)"/>
<path d="M0 0 C1.32 0.99 2.64 1.98 4 3 C1.03 4.32 -1.94 5.64 -5 7 C-5 6.01 -5 5.02 -5 4 C-3.68 4 -2.36 4 -1 4 C-0.67 2.68 -0.34 1.36 0 0 Z " fill="#1979ED" transform="translate(675,816)"/>
<path d="M0 0 C4.51478398 0.53115106 7.34666857 2.36620292 11 5 C7.25 6.125 7.25 6.125 5 5 C5 4.34 5 3.68 5 3 C4.01 3 3.02 3 2 3 C2 2.34 2 1.68 2 1 C1.34 0.67 0.68 0.34 0 0 Z " fill="#129CEC" transform="translate(339,774)"/>
<path d="M0 0 C-2.68841859 2.25245881 -4.64641875 3.88213958 -8 5 C-8 4.01 -8 3.02 -8 2 C-3.71900826 -1.23966942 -3.71900826 -1.23966942 0 0 Z " fill="#05C6E9" transform="translate(285,679)"/>
<path d="M0 0 C3.82946843 1.45255699 5.12050295 3.42895561 7 7 C6.01 7.495 6.01 7.495 5 8 C0 2.25 0 2.25 0 0 Z " fill="#0BAEE6" transform="translate(539,533)"/>
<path d="M0 0 C2.475 0.495 2.475 0.495 5 1 C5 1.66 5 2.32 5 3 C6.32 3.33 7.64 3.66 9 4 C7.3125 4.6875 7.3125 4.6875 5 5 C2.25 3.6875 2.25 3.6875 0 2 C0 1.34 0 0.68 0 0 Z " fill="#03C8DE" transform="translate(400,529)"/>
<path d="M0 0 C-3.06117568 2.62386487 -3.73173127 3 -8 3 C-7.67 2.01 -7.34 1.02 -7 0 C-4.3333581 -1.33332095 -2.83319697 -0.67102033 0 0 Z " fill="#26AEF5" transform="translate(650,283)"/>
<path d="M0 0 C0.66 0.33 1.32 0.66 2 1 C1.64950425 4.24208567 1.43778819 5.61527704 -1.0625 7.8125 C-1.701875 8.204375 -2.34125 8.59625 -3 9 C-2.01 6.03 -1.02 3.06 0 0 Z " fill="#2D2D2E" transform="translate(76,171)"/>
<path d="M0 0 C0.33 0.99 0.66 1.98 1 3 C-3.455 4.485 -3.455 4.485 -8 6 C-5.37886292 3.37886292 -3.17772443 1.80357333 0 0 Z " fill="#0C6BE5" transform="translate(915,814)"/>
<path d="M0 0 C1 3 1 3 -0.3125 5.6875 C-0.869375 6.450625 -1.42625 7.21375 -2 8 C-2.66 8 -3.32 8 -4 8 C-2.25 2.25 -2.25 2.25 0 0 Z " fill="#0F9BEF" transform="translate(650,623)"/>
<path d="M0 0 C1.32 0.33 2.64 0.66 4 1 C1.03 2.65 -1.94 4.3 -5 6 C-4.67 4.68 -4.34 3.36 -4 2 C-2.68 2 -1.36 2 0 2 C0 1.34 0 0.68 0 0 Z " fill="#1EB1ED" transform="translate(528,308)"/>
<path d="M0 0 C5.445 1.485 5.445 1.485 11 3 C11 3.33 11 3.66 11 4 C4.375 4.125 4.375 4.125 1 3 C0.67 2.01 0.34 1.02 0 0 Z " fill="#0A2C40" transform="translate(606,284)"/>
<path d="M0 0 C3.11198065 1.49836105 6.0534615 3.19933758 9 5 C8.67 5.66 8.34 6.32 8 7 C5.03 5.35 2.06 3.7 -1 2 C-0.67 1.34 -0.34 0.68 0 0 Z " fill="#1AA1E5" transform="translate(669,274)"/>
<path d="M0 0 C0.8971875 0.309375 0.8971875 0.309375 1.8125 0.625 C-1.5215947 2.81597652 -4.22929141 4.05954163 -8.1875 4.625 C-3.2421875 -0.55580357 -3.2421875 -0.55580357 0 0 Z " fill="#1BA7E4" transform="translate(533.1875,245.375)"/>
<path d="M0 0 C3.43595166 1.52708963 6.11912454 3.59927045 9 6 C5.30581799 6 3.22163822 4.71820705 0 3 C0 2.01 0 1.02 0 0 Z " fill="#138AE1" transform="translate(359,885)"/>
<path d="M0 0 C-5.14285714 4.42857143 -5.14285714 4.42857143 -9 5 C-9 4.34 -9 3.68 -9 3 C-6.04341306 0.15291628 -4.05047276 -0.3375394 0 0 Z " fill="#19A7DF" transform="translate(470,345)"/>
<path d="M0 0 C1.46911544 3.81970016 0.52561108 6.30641529 -1 10 C-1.66 10.66 -2.32 11.32 -3 12 C-2.40075776 7.80530429 -1.42500059 3.99000166 0 0 Z " fill="#404042" transform="translate(69,187)"/>
<path d="M0 0 C0.33 0 0.66 0 1 0 C1.92470553 4.71599818 2.22923777 7.67265609 0 12 C-0.66 12 -1.32 12 -2 12 C-1.34 8.04 -0.68 4.08 0 0 Z " fill="#0A67DA" transform="translate(648,1002)"/>
<path d="M0 0 C0.66 0.33 1.32 0.66 2 1 C0.35 2.65 -1.3 4.3 -3 6 C-3.99 5.67 -4.98 5.34 -6 5 C-4.06745228 2.9754262 -2.36841312 1.57894208 0 0 Z " fill="#1061D7" transform="translate(758,907)"/>
<path d="M0 0 C0 0.66 0 1.32 0 2 C-1.98 2.99 -3.96 3.98 -6 5 C-6.33 4.01 -6.66 3.02 -7 2 C-2.25 0 -2.25 0 0 0 Z " fill="#1371F1" transform="translate(892,889)"/>
<path d="M0 0 C2.97 0 5.94 0 9 0 C5.55549263 2.29633824 3.06187717 2.54016485 -1 3 C-0.67 2.01 -0.34 1.02 0 0 Z " fill="#1C96EB" transform="translate(326,876)"/>
<path d="M0 0 C0.66 0.66 1.32 1.32 2 2 C0.35 3.32 -1.3 4.64 -3 6 C-3 4.68 -3 3.36 -3 2 C-2.01 1.34 -1.02 0.68 0 0 Z " fill="#1873F5" transform="translate(965,841)"/>
</svg>